<svg width="105" height="17" viewBox="0 0 105 17" fill="none" xmlns="http://www.w3.org/2000/svg">
    <path fill-rule="evenodd" clip-rule="evenodd" d="M81.922 4.51c1.183 0 2.292.592 2.81 1.257V0h2.883v16.34H84.73v-1.183c-.37.591-1.404 1.405-2.81 1.405-3.474 0-5.249-2.44-5.249-5.99 0-3.548 1.775-6.062 5.25-6.062zm.443 9.538c1.48 0 2.662-1.257 2.662-3.549S83.844 6.95 82.365 6.95c-1.478 0-2.661 1.257-2.661 3.549s1.183 3.549 2.661 3.549zM.444 7.765c.37-1.922 2.07-3.253 4.436-3.253 2.735 0 4.88 1.183 4.88 4.88v6.876H7.394l-.296-1.48c-.813 1.036-1.922 1.701-3.55 1.701C1.554 16.49 0 15.232 0 12.94s2.07-3.77 4.954-3.77h1.922v-.518c0-1.33-.961-1.7-2.07-1.7-.813 0-1.627.295-1.996 1.33L.444 7.765zm3.77 6.285c1.331 0 2.662-.888 2.662-2.366v-.222H5.028c-1.257-.074-1.997.443-1.997 1.479 0 .517.444 1.108 1.183 1.108zm51.977-6.285c.37-1.922 2.07-3.253 4.436-3.253 2.736 0 4.88 1.183 4.88 4.88v6.876h-2.366l-.296-1.48c-.813 1.036-1.922 1.701-3.549 1.701-1.996 0-3.549-1.257-3.549-3.549s2.07-3.77 4.954-3.77h1.922v-.518c0-1.33-.96-1.7-2.07-1.7-.813 0-1.626.295-1.996 1.33l-2.366-.517zm3.77 6.285c1.332 0 2.663-.888 2.663-2.366v-.222H60.7c-1.257 0-1.996.443-1.996 1.479.074.517.517 1.108 1.257 1.108zm8.135-9.39V16.34l2.883-.073v-4.14c0-3.698 1.405-5.102 3.105-5.102.444 0 .814.147 1.183.37l.518-2.662a4.304 4.304 0 0 0-1.405-.222c-1.257 0-2.588.665-3.401 2.07V4.66h-2.883zm28.17 3.248 1.7-1.552c-.665-1.11-2.07-1.923-3.549-1.997-2.218 0-3.697 1.627-3.697 3.401 0 1.775 1.11 2.588 2.366 3.106.336.14.675.261.998.375 1.029.364 1.886.668 1.886 1.4 0 .813-.592 1.256-1.479 1.256-1.183 0-1.922-.813-2.366-1.922l-2.292 1.257c.518 1.405 2.144 3.105 4.584 3.105 2.514 0 4.14-1.7 4.14-3.845 0-2.137-1.985-2.8-3.57-3.328-.225-.075-.442-.147-.644-.22-.665-.222-1.109-.592-1.109-1.11 0-.591.518-.96 1.11-.96.59 0 1.404.295 1.922 1.034zm-57.892-3.25-2.07 8.06-1.997-8.06h-2.662l-1.922 8.06-1.627-4.659-.221.518-.888 3.031 1.48 4.732h2.513L32.976 8.8l1.996 7.541h2.588l3.697-11.682h-2.883zm11.755 8.06 2.07-8.06h2.884l-3.77 11.682h-2.514L46.802 8.8l-1.996 7.541h-2.514l-1.552-4.732.96-3.031.223-.518 1.626 4.658 1.923-8.059h2.661l1.996 8.06zm-22.698-8.06-3.697 11.608H21.22L19.224 8.8l-1.997 7.541h-2.514L11.018 4.732H13.9l2.07 7.985 1.997-7.985h2.661l1.997 7.985 2.07-7.985 2.735-.074zm76.819 9.833c0-1.11-.813-1.922-1.922-1.922s-1.923.813-1.923 1.922.814 1.922 1.923 1.922 1.922-.813 1.922-1.922z" fill="#000"></path>
</svg>