<svg width="86" height="70" viewBox="0 0 86 70" fill="none" xmlns="http://www.w3.org/2000/svg">
    <path fill-rule="evenodd" clip-rule="evenodd" d="M11.883 10.357v-.564c1.512-.042 3.634-.353 4.896-2.088.819-1.13 1.235-2.964.528-4.671-.333-.776-1.082-2.215-3.274-2.06-2.372.17-3.787.945-3.787.945l-.166-.536.208-.127s1.401-.748 3.87-.889c2.33-.141 3.426 1.693 3.8 2.582.652 1.496.292 3.965-.68 5.15-1.566 1.892-3.55 2.202-5.27 2.258h-.125zM23.73 5.221l.278-.099.319 3.782-.305.057-.291-3.74z" fill="#fff"></path>
    <path d="m23.73 5.221.278-.099.319 3.782-.305.057-.291-3.74z" fill="#fff"></path>
    <path d="m23.953 9.045-.29-3.866.387-.155.333 3.937-.43.084zm-.138-3.782.263 3.613.18-.028-.305-3.641-.138.056z" fill="#fff"></path>
    <path fill-rule="evenodd" clip-rule="evenodd" d="M24.05 9.37v-.282c.749-.029 1.775-.17 2.4-1.03.402-.55.61-1.454.25-2.286-.167-.381-.528-1.087-1.61-1.002-1.165.084-1.858.465-1.858.465l-.084-.254.098-.056s.68-.367 1.886-.438c1.151-.07 1.678.833 1.872 1.27.32.734.153 1.934-.332 2.526-.763.932-1.734 1.087-2.58 1.101l-.042-.014z" fill="#fff"></path>
    <path d="M24.05 9.37v-.282c.749-.029 1.775-.17 2.4-1.03.402-.55.61-1.454.25-2.286-.167-.381-.528-1.087-1.61-1.002-1.165.084-1.858.465-1.858.465l-.084-.254.098-.056s.68-.367 1.886-.438c1.151-.07 1.678.833 1.872 1.27.32.734.153 1.934-.332 2.526-.763.932-1.734 1.087-2.58 1.101l-.042-.014z" fill="#fff"></path>
    <path d="M24.107 9.469h-.139v-.452h.083c1.11-.028 1.873-.353 2.33-.988.347-.465.61-1.326.25-2.201-.166-.41-.5-.96-1.36-.96h-.152c-1.137.085-1.83.452-1.83.452l-.084.056-.139-.423.167-.099c.028-.014.707-.38 1.928-.437 1.22-.085 1.775.903 1.956 1.312.332.748.152 1.99-.347 2.61-.805.946-1.803 1.101-2.663 1.13zm.027-.283V9.3c.819-.028 1.748-.183 2.483-1.072.472-.565.624-1.736.32-2.427-.195-.452-.68-1.214-1.665-1.214h-.111c-1.18.07-1.845.424-1.859.424l-.041.028.027.099c.222-.1.86-.353 1.803-.424 1.207-.084 1.582.79 1.693 1.059.388.93.097 1.862-.264 2.37-.485.65-1.262.988-2.386 1.044z" fill="#fff"></path>
    <path fill-rule="evenodd" clip-rule="evenodd" d="M20.057 8.862c-.416 0-.333-.282-.333-.282l.111-1.651 1.928-.113-.014-.24-1.886.084.11-1.622 2.317-.1-.014-.253-2.746.085-.028.282.236-.014-.291 3.556c-.056.522.582.55.582.55l2.261-.127-.014-.24-2.219.085z" fill="#fff"></path>
    <path d="M20.057 8.862c-.416 0-.333-.282-.333-.282l.111-1.651 1.928-.113-.014-.24-1.886.084.11-1.622 2.317-.1-.014-.253-2.746.085-.028.282.236-.014-.291 3.556c-.056.522.582.55.582.55l2.261-.127-.014-.24-2.219.085z" fill="#fff"></path>
    <path d="M20.03 9.229c-.013 0-.36-.014-.554-.24-.098-.113-.125-.24-.111-.41l.277-3.457-.236.014.042-.465 2.913-.099.027.423h-.083l-2.233.1-.097 1.438 1.872-.07.028.423L19.933 7l-.11 1.58c0 .015-.015.071.013.113.028.043.111.071.222.071l2.303-.085.027.424-2.358.127zm-.208-4.276-.29 3.655a.394.394 0 0 0 .069.282c.11.141.346.17.43.183l2.177-.112V8.89l-2.136.085c-.18 0-.305-.043-.374-.141-.084-.113-.056-.24-.042-.254l.125-1.708 1.914-.113v-.07l-1.9.084.124-1.792 2.303-.099v-.07l-2.594.085-.014.112.208-.056z" fill="#fff"></path>
    <path fill-rule="evenodd" clip-rule="evenodd" d="M39.784 4.473c-1.234 0-2.233 1.073-2.233 2.4 0 1.326.998 2.398 2.233 2.398 1.234 0 2.233-1.072 2.233-2.399 0-1.326-.999-2.399-2.233-2.399zm0 4.502c-1.082 0-1.956-.932-1.956-2.089s.874-2.088 1.956-2.088c1.082 0 1.956.931 1.956 2.088s-.874 2.089-1.956 2.089z" fill="#fff"></path>
    <path d="M39.784 4.473c-1.234 0-2.233 1.073-2.233 2.4 0 1.326.998 2.398 2.233 2.398 1.234 0 2.233-1.072 2.233-2.399 0-1.326-.999-2.399-2.233-2.399zm0 4.502c-1.082 0-1.956-.932-1.956-2.089s.874-2.088 1.956-2.088c1.082 0 1.956.931 1.956 2.088s-.874 2.089-1.956 2.089z" fill="#fff"></path>
    <path d="M39.783 9.342c-1.276 0-2.33-1.115-2.33-2.484s1.04-2.483 2.33-2.483c1.276 0 2.33 1.114 2.33 2.483 0 1.383-1.053 2.484-2.33 2.484zm0-4.784c-1.193 0-2.15 1.03-2.15 2.314 0 1.27.971 2.3 2.15 2.3 1.193 0 2.15-1.03 2.15-2.3 0-1.284-.957-2.314-2.15-2.314zm0 4.501c-1.123 0-2.039-.973-2.039-2.187 0-1.2.916-2.173 2.04-2.173 1.123 0 2.038.974 2.038 2.173 0 1.214-.915 2.187-2.039 2.187zm0-4.176c-1.026 0-1.872.903-1.872 2.003 0 1.115.846 2.004 1.872 2.004 1.027 0 1.873-.903 1.873-2.004 0-1.115-.846-2.003-1.873-2.003z" fill="#fff"></path>
    <path fill-rule="evenodd" clip-rule="evenodd" d="M44.89 4.473c-1.235 0-2.234 1.073-2.234 2.4 0 1.326.999 2.398 2.233 2.398 1.235 0 2.234-1.072 2.234-2.399 0-1.326-1-2.399-2.234-2.399zm0 4.502c-1.083 0-1.956-.932-1.956-2.089s.873-2.088 1.955-2.088 1.956.931 1.956 2.088-.874 2.089-1.956 2.089z" fill="#fff"></path>
    <path d="M44.89 4.473c-1.235 0-2.234 1.073-2.234 2.4 0 1.326.999 2.398 2.233 2.398 1.235 0 2.234-1.072 2.234-2.399 0-1.326-1-2.399-2.234-2.399zm0 4.502c-1.083 0-1.956-.932-1.956-2.089s.873-2.088 1.955-2.088 1.956.931 1.956 2.088-.874 2.089-1.956 2.089z" fill="#fff"></path>
    <path d="M44.889 9.342c-1.276 0-2.33-1.115-2.33-2.484s1.04-2.483 2.33-2.483c1.276 0 2.33 1.114 2.33 2.483 0 1.383-1.054 2.484-2.33 2.484zm0-4.784c-1.18 0-2.15 1.03-2.15 2.314 0 1.27.97 2.3 2.15 2.3 1.193 0 2.15-1.03 2.15-2.3 0-1.284-.957-2.314-2.15-2.314zm0 4.501c-1.124 0-2.04-.973-2.04-2.187 0-1.2.916-2.173 2.04-2.173 1.123 0 2.039.974 2.039 2.173 0 1.214-.916 2.187-2.04 2.187zm0-4.176c-1.027 0-1.873.903-1.873 2.003 0 1.115.846 2.004 1.873 2.004 1.026 0 1.872-.903 1.872-2.004 0-1.115-.846-2.003-1.872-2.003zM35.248.932l-.485.409c-.666-.522-1.138-.72-2.164-.565-1.165.184-2.025.903-2.608 1.877-.596.974-.749 2.074-.471 3.26.277 1.2.777 2.44 1.734 3.034.957.592 1.872.62 3.065.268.79-.226 1.553-1.157 1.706-2.131l.624.155c-.139 1.284-1.11 2.216-2.164 2.653-1.345.55-2.496.353-3.648-.353-1.15-.691-1.775-2.074-2.094-3.443-.319-1.383-.097-2.653.652-3.81S31.157.282 32.502.085c1.012-.141 2.011.056 2.746.847z" fill="#fff"></path>
    <path fill-rule="evenodd" clip-rule="evenodd" d="M49.168 3.697 49.43.014l-.568.028-.652 8.072c-.125 1.185 1.331 1.256 1.331 1.256l3.953-.282-.041-.565-3.842.198c-.93.014-.75-.621-.75-.621l.264-3.768.042-.635z" fill="#fff"></path>
    <path d="M49.168 3.697 49.43.014l-.568.028-.652 8.072c-.125 1.185 1.331 1.256 1.331 1.256l3.953-.282-.041-.565-3.842.198c-.93.014-.75-.621-.75-.621l.264-3.768.042-.635z" fill="#fff"></path>
    <path d="M49.549 9.398c-.014 0-.75-.042-1.138-.494-.18-.212-.25-.466-.221-.79L48.84.028h.014L49.438 0v.014l-.569 8.072s-.055.211.07.38c.11.156.332.226.651.226h.014l3.87-.197.042.592h-.014l-3.953.31zM48.883.07l-.652 8.057c-.028.296.042.564.208.762.36.437 1.068.48 1.11.48l3.925-.283-.028-.522-3.842.198c-.333 0-.568-.085-.68-.24-.138-.183-.069-.395-.069-.41l.569-8.057-.541.015zM.902 13.377H0v46.708h.902V13.377zM2.698 13.377h-.901v46.708h.901V13.377zM7.229 13.377H5.426v46.708h1.803V13.377zM9.032 13.377h-.901v46.708h.901V13.377zM11.746 13.363h-.832v46.68h.832v-46.68zM15.359 13.363h-1.734v46.68h1.734v-46.68zM18.072 13.363h-1.873v46.68h1.873v-46.68zM21.696 13.363h-2.788v46.68h2.788v-46.68zM23.497 13.363h-.901v46.68h.901v-46.68zM28.032 13.363h-3.62v46.68h3.62v-46.68zM31.628 13.363h-2.774v46.68h2.774v-46.68zM34.343 13.363h-1.872v46.68h1.872v-46.68zM37.06 13.363h-.832v46.68h.833v-46.68zM40.666 13.363h-1.734v46.68h1.733v-46.68zM42.49 13.377h-.902V60.34h.901V13.377zM44.286 13.377h-.901V60.34h.901V13.377zM47.92 13.363H45.2v46.68h2.719v-46.68zM50.626 13.363h-.901v46.68h.901v-46.68zM53.406 13.363h-1.873v46.68h1.873v-46.68zM57.023 13.363H55.15v46.68h1.873v-46.68zM59.732 13.363h-1.873v46.68h1.873v-46.68zM63.345 13.363h-1.872v46.68h1.872v-46.68zM65.093 13.363h-.902v46.68h.902v-46.68zM69.605 13.363h-.902v46.68h.902v-46.68zM72.388 13.363h-1.872v46.68h1.872v-46.68zM75.093 13.363h-1.872v46.68h1.872v-46.68zM78.714 13.363h-1.872v46.482h1.872V13.363zM81.437 13.363h-1.873v46.482h1.873V13.363zM84.068 13.363h-.902v46.482h.902V13.363zM85.888 13.363h-.902v46.482h.902V13.363zM11.26 1.877l.555 7.634.638-.113-.652-7.733-.541.212z" fill="#fff"></path>
    <path d="M14.152.381c-2.469.141-3.87.889-3.87.889l-.208.127.167.536s1.428-.776 3.786-.945c2.206-.155 2.955 1.27 3.274 2.06.707 1.693.291 3.528-.527 4.67-1.263 1.75-3.385 2.047-4.897 2.09v.564h.111c1.72-.057 3.704-.367 5.271-2.258.985-1.186 1.332-3.655.68-5.15-.36-.89-1.443-2.724-3.787-2.583zM25.151 4.403c-1.22.07-1.9.423-1.928.437l-.166.099.138.423.084-.056s.208-.113.568-.212l-.18.07.291 3.867h.014v.423h.139c.86-.028 1.858-.183 2.65-1.128.512-.607.679-1.863.346-2.611-.18-.41-.735-1.397-1.956-1.312zm-1.068 4.473-.263-3.613.138-.056.305 3.64-.18.029zm-.014-3.824c.291-.07.624-.155 1.04-.184h.153c.86 0 1.193.55 1.36.96.36.875.096 1.721-.25 2.201-.43.607-1.152.917-2.178.974l.208-.042-.333-3.91zm2.552 3.16c-.735.89-1.664 1.045-2.482 1.073v-.113c1.123-.042 1.9-.395 2.385-1.058.36-.508.652-1.44.264-2.37-.125-.283-.486-1.144-1.692-1.06a5.626 5.626 0 0 0-1.804.424l-.027-.099.041-.028c.014 0 .68-.353 1.859-.423h.11c.986 0 1.471.762 1.665 1.213.305.706.153 1.891-.319 2.442zM22.292 5.01h.083l-.028-.424-2.913.099-.041.466.235-.014-.277 3.457a.529.529 0 0 0 .111.409c.194.226.54.24.555.24l2.358-.127-.028-.424-2.303.085c-.11 0-.194-.028-.221-.07-.028-.043-.014-.1-.014-.113l.11-1.58 1.943-.114-.028-.423-1.873.07.097-1.439 2.234-.098zm-.61 1.65v.071l-1.915.113-.125 1.707c0 .014-.041.141.042.254.07.085.194.141.374.141l2.137-.084v.07l-2.178.113c-.083 0-.305-.042-.43-.183a.36.36 0 0 1-.07-.282l.292-3.655-.236.014.014-.113 2.594-.085v.071l-2.303.099-.125 1.792 1.928-.043zM39.785 4.389c-1.276 0-2.33 1.114-2.33 2.483s1.04 2.484 2.33 2.484c1.276 0 2.33-1.115 2.33-2.484s-1.054-2.483-2.33-2.483zm0 4.783c-1.192 0-2.15-1.03-2.15-2.3 0-1.27.971-2.314 2.15-2.314 1.193 0 2.15 1.03 2.15 2.314 0 1.27-.957 2.3-2.15 2.3z" fill="#fff"></path>
    <path d="M39.789 4.699c-1.123 0-2.039.974-2.039 2.173 0 1.2.916 2.187 2.039 2.187 1.123 0 2.039-.973 2.039-2.187 0-1.2-.916-2.173-2.039-2.173zm0 4.191c-1.026 0-1.873-.903-1.873-2.004 0-1.1.847-2.004 1.873-2.004s1.872.904 1.872 2.004-.846 2.004-1.872 2.004zM44.89 4.389c-1.275 0-2.33 1.114-2.33 2.483s1.04 2.484 2.33 2.484c1.277 0 2.331-1.115 2.331-2.484s-1.054-2.483-2.33-2.483zm0 4.783c-1.178 0-2.15-1.03-2.15-2.3 0-1.27.972-2.314 2.15-2.314 1.194 0 2.15 1.03 2.15 2.314 0 1.27-.956 2.3-2.15 2.3z" fill="#fff"></path>
    <path d="M44.89 4.699c-1.123 0-2.038.974-2.038 2.173 0 1.2.915 2.187 2.039 2.187 1.123 0 2.038-.973 2.038-2.187 0-1.2-.915-2.173-2.038-2.173zm0 4.191c-1.026 0-1.872-.903-1.872-2.004 0-1.1.846-2.004 1.873-2.004 1.026 0 1.872.904 1.872 2.004s-.846 2.004-1.872 2.004zM34.292 9.229c-1.193.353-2.109.324-3.066-.268-.957-.593-1.456-1.835-1.734-3.034-.277-1.2-.11-2.286.472-3.26C30.56 1.68 31.42.974 32.572.79c1.026-.155 1.498.043 2.163.565l.486-.41C34.486.156 33.487-.055 32.46.1c-1.346.197-2.372 1.044-3.107 2.201-.75 1.157-.957 2.427-.652 3.81.319 1.369.943 2.752 2.094 3.443 1.152.692 2.303.903 3.648.353 1.04-.423 2.025-1.355 2.164-2.653l-.624-.155c-.139.974-.902 1.905-1.692 2.13zM53.478 8.523l-3.87.198h-.014c-.319 0-.54-.07-.652-.226-.124-.17-.069-.381-.069-.381l.569-8.072V.028l-.583.029h-.014l-.652 8.085c-.027.31.042.579.222.79.375.452 1.124.494 1.124.494l3.953-.282h.014l-.028-.62zm-3.925.847c-.028 0-.735-.043-1.11-.48-.166-.198-.236-.452-.208-.762l.652-8.057.527-.029-.569 8.058c0 .014-.069.226.07.409.124.155.346.24.68.24l3.842-.198.027.522-3.911.297zM11.805 1.665l-.541.212.555 7.634.637-.113-.651-7.733zM12.889 64.233h.582v3.91h2.108v.507h-2.69v-4.417zM18.757 64.163c.61 0 1.096.212 1.456.62.361.41.541.974.541 1.666 0 .691-.18 1.256-.54 1.665-.361.41-.847.62-1.457.62-.61 0-1.096-.21-1.456-.62-.36-.41-.541-.974-.541-1.665 0-.692.18-1.256.54-1.665.361-.424.847-.621 1.457-.621zm0 .48c-.43 0-.763.155-1.012.48-.25.324-.375.761-.375 1.326 0 .55.125.988.375 1.312.25.325.582.48 1.012.48.43 0 .763-.155 1.013-.48.25-.324.374-.762.374-1.312s-.125-1.002-.374-1.327c-.25-.31-.583-.48-1.013-.48zM25.313 64.389v.578a3.492 3.492 0 0 0-.624-.24 2.059 2.059 0 0 0-.57-.084c-.318 0-.568.056-.734.183a.653.653 0 0 0-.264.536c0 .198.056.339.167.438.11.098.333.183.652.24l.36.07c.444.085.763.24.971.452.208.211.32.493.32.86 0 .424-.14.748-.417.974-.277.226-.694.325-1.234.325-.209 0-.43-.029-.652-.07a3.751 3.751 0 0 1-.722-.213v-.606c.236.14.472.24.694.31.222.07.458.099.68.099.332 0 .596-.07.776-.198.18-.127.278-.324.278-.578a.698.698 0 0 0-.194-.508c-.125-.127-.347-.212-.639-.268l-.36-.07c-.444-.086-.75-.227-.943-.424-.195-.184-.292-.452-.292-.79 0-.396.14-.692.403-.918.277-.225.638-.338 1.11-.338.207 0 .415.014.623.056.167.043.389.099.61.184zM31.557 64.234h.666l1.65 4.402h-.61l-.388-1.129h-1.956l-.402 1.13h-.624l1.664-4.403zm.333.592-.79 2.187h1.594l-.804-2.187zM35.537 64.234h.79l1.915 3.683v-3.683h.569v4.402h-.79l-1.929-3.683v3.683h-.569v-4.402h.014zM43.976 68.015V66.83h-.957v-.494h1.54v1.89c-.223.17-.472.283-.75.368a2.98 2.98 0 0 1-.874.127c-.68 0-1.206-.198-1.595-.607-.374-.41-.569-.96-.569-1.68 0-.719.195-1.283.57-1.678.388-.41.915-.607 1.594-.607.278 0 .555.042.805.113.25.07.485.169.707.31v.635a2.555 2.555 0 0 0-.693-.423c-.25-.1-.5-.141-.763-.141-.527 0-.93.155-1.193.451-.264.296-.402.748-.402 1.34 0 .593.138 1.045.402 1.341.263.296.666.452 1.193.452.208 0 .388-.014.555-.057a.88.88 0 0 0 .43-.155zM46.662 64.234h2.733v.508h-2.15v1.298h2.066v.508h-2.066v1.594h2.205v.508h-2.788v-4.416zM51.451 64.234h.583v3.908h2.108v.508h-2.69v-4.416zM55.809 64.234h2.746v.508h-2.15v1.298h2.067v.508h-2.067v1.594h2.205v.508h-2.788v-4.416h-.013zM63.186 64.389v.578a3.489 3.489 0 0 0-.624-.24 2.058 2.058 0 0 0-.569-.084c-.319 0-.568.056-.735.183a.653.653 0 0 0-.263.536c0 .198.055.339.166.438.111.098.333.183.652.24l.36.07c.444.085.764.24.972.452.208.211.319.493.319.86 0 .424-.14.748-.43.974-.278.226-.694.325-1.235.325a3.54 3.54 0 0 1-.652-.07 3.748 3.748 0 0 1-.721-.213v-.606c.236.14.472.24.694.31.221.07.457.099.665.099.333 0 .597-.07.777-.198.18-.127.277-.324.277-.578a.698.698 0 0 0-.194-.508c-.138-.127-.347-.212-.638-.268l-.36-.07c-.444-.086-.75-.227-.944-.424-.194-.184-.29-.452-.29-.79 0-.396.138-.692.401-.918.278-.225.638-.338 1.11-.338.208 0 .416.014.624.056.208.043.43.099.638.184zM68.44 67.902h.611v.508l-.471.946h-.375l.236-.946v-.508zM77.42 64.586v.635a2.23 2.23 0 0 0-.625-.423 1.714 1.714 0 0 0-.707-.141c-.5 0-.874.155-1.138.465-.263.31-.402.748-.402 1.341 0 .579.139 1.03.402 1.326.264.31.638.466 1.138.466.25 0 .485-.042.707-.141.222-.099.43-.24.624-.423v.62a2.357 2.357 0 0 1-.652.325c-.236.07-.471.113-.721.113-.652 0-1.165-.212-1.553-.607-.375-.409-.57-.96-.57-1.679 0-.706.181-1.27.57-1.68.374-.408.901-.606 1.553-.606.264 0 .5.042.735.099.222.056.444.17.638.31zM80.493 64.234h.665l1.651 4.402h-.61l-.403-1.129h-1.955l-.389 1.13h-.624l1.665-4.403zm.333.592-.791 2.187h1.595l-.804-2.187z" fill="#fff"></path>
</svg>