<svg width="91" height="14" viewBox="0 0 91 14" fill="none" xmlns="http://www.w3.org/2000/svg">
    <path d="M0 14V.016h5.066c2.426 0 4.05.965 4.05 3.628 0 1.261-.395 2.29-1.502 2.865v.047c1.941.234 2.775 1.589 2.775 3.55C10.39 13.035 7.947 14 5.46 14H0zm3.534-8.503h.394c.94 0 1.911-.171 1.911-1.355 0-1.277-1.107-1.354-2.063-1.354H3.52v2.71h.015zm0 5.716h.455c1.046 0 2.82.062 2.82-1.48 0-1.682-1.758-1.526-2.911-1.526h-.364v3.005zM14.712 0h4.246l2.548 3.8L24.054 0h4.247l-5.02 7.273v6.711h-3.55V7.273L14.712 0zm31.516 14h-4.413l-3.337-5.388h-.03V14h-3.55V.016h5.294c2.7 0 4.732 1.323 4.732 4.298 0 1.93-1.047 3.597-2.988 3.955L46.228 14zm-7.796-7.724h.334c1.153 0 2.457-.218 2.457-1.744s-1.304-1.744-2.457-1.744h-.334v3.488zM52.962 0h5.02c3.792 0 6.916 3.068 6.916 6.992 0 3.925-3.14 6.992-6.916 6.992h-5.02V0zm3.534 10.917h.788c2.109 0 3.913-1.184 3.913-3.91 0-2.506-1.607-3.908-3.882-3.908h-.82v7.818zM75.515 14h-3.55V.016h3.55V14zM86.799 3.083V5.42h3.989v3.084h-3.99v2.414H91V14h-7.75V.016H91v3.083h-4.201v-.016z" fill="#000"></path>
</svg>