<svg width="104" height="35" viewBox="0 0 104 35" fill="none" xmlns="http://www.w3.org/2000/svg">
    <path d="M56.464 25.58c-1.06 3.55-3.379 5.671-6.197 5.671-3.988 0-6.368-4.107-6.368-10.99 0-5.691 1.835-9.087 4.929-9.087 2.268 0 3.67 1.386 3.67 3.619a10.35 10.35 0 0 1-.149 1.632 8.788 8.788 0 0 0-.13 1.357c0 1.421.947 2.373 2.356 2.373 1.345 0 2.358-1.163 2.358-2.714 0-3.683-4.123-7.173-8.483-7.173-5.485 0-11.315 4.364-11.315 12.456 0 7.498 5.162 11.978 10.153 11.978 4.68 0 8.387-3.32 9.91-8.884l.047-.173-.748-.256-.033.19zM63.637 8.227c2.222 0 4.037-1.855 4.037-4.135S65.866 0 63.637 0C61.376 0 59.6 1.797 59.6 4.092c0 2.296 1.776 4.135 4.037 4.135z" fill="#fff"></path>
    <path d="M81.53 33.522c-1.623 0-2.285-.895-2.285-3.101V.747h-.591L78.6.824c-.784 1.164-4.445 1.873-6.726 1.873H70.26v.805h.407c1.57 0 2.24.938 2.24 3.142V30.43c0 2.2-.65 3.102-2.24 3.102h-1.112c-1.589 0-2.237-.91-2.237-3.142V10.035h-.59l-.054.077c-.783 1.163-4.446 1.873-6.725 1.873h-1.615v.799h.367c1.59 0 2.237.91 2.237 3.142v14.458c0 2.233-.648 3.142-2.237 3.142h-.367v.799h23.557v-.614l-.024-.194-.338.005zM102.76 25.405l-.053.179c-1.481 4.935-4.66 5.672-6.423 5.672-4.056 0-6.623-3.92-6.779-10.275-1.37-.893-4.889-1.432-4.889-1.432h18.614v-.184c.022-2.464-.773-4.626-2.294-6.248-1.714-1.827-4.221-2.833-7.07-2.833-2.778.032-5.443 1.16-7.472 3.164-1.651 1.619-3.613 4.536-3.613 9.243 0 7.429 5.489 12.02 10.572 12.02 4.91 0 8.497-3.155 10.093-8.883l.048-.175-.734-.248zm-9.077-14.274c2.373 0 3.56 2.46 3.63 7.522h-7.766c.222-4.992 1.613-7.521 4.13-7.521h.006zM15.4.677c-3.1 0-6.994 2.09-9.691 5.2a13.885 13.885 0 0 0-2.59 4.788H0v.893h2.9a22.583 22.583 0 0 0-.29 3.62v15.264c0 2.2-.65 3.102-2.24 3.102H.005v.797h11.584v-.8h-.366c-1.59 0-2.237-.897-2.237-3.1V12.984c-1.223-.882-4.278-1.415-4.278-1.415l4.278-.012h5.66v-.893H8.993V6.522c0-2.371.631-3.428 2.051-3.428.826 0 1.531.481 2.276.991.826.564 1.68 1.15 2.784 1.15 1.36 0 2.31-.92 2.31-2.232C18.408 1.59 17.228.677 15.4.677z" fill="#fff"></path>
    <path d="M36.551 33.553c-1.589 0-2.349-.897-2.349-3.102V15.555h-.066c-.207-3.79-2.128-5.27-6.79-5.27-4.816 0-11.964 2.552-11.964 6.08-.006.316.048.63.16.921.111.293.278.558.49.78.212.222.464.396.742.512.277.116.574.171.872.162 1.468 0 2.107-1.153 2.982-3.04 1.75-3.136 3.384-4.473 5.465-4.473 1.378 0 1.82.612 1.82 2.52v4.115l-5.925 2.52c-3.075 1.315-7.166 3.579-7.166 8.067 0 3.877 2.399 6.273 6.258 6.273 2.404 0 4.705-.849 6.841-2.52v-.1c0 1.24 1.101 2.25 2.303 2.25h6.69v-.79l-.363-.009zm-8.624-2.388c-1.676 1.312-2.937 1.898-4.104 1.898-1.763 0-2.516-1.652-2.516-5.521 0-3.996.564-6.258 3.649-7.532l2.961-1.23v10.093c0 .215 0 .446.01.673v1.619z" fill="#fff"></path>
</svg>