<svg width="62" height="16" viewBox="0 0 62 16" fill="none" xmlns="http://www.w3.org/2000/svg">
    <path d="M5.985 1.491h1.358a4.633 4.633 0 0 1 2.442.306 4.27 4.27 0 0 1 1.953 2.572c.203.563.203.563.69.364h.382V.27H.03v.787h.524a1.543 1.543 0 0 1 1.191.552c.489.775.572 1.644.572 6.165 0 4.804-.107 5.978-.572 6.577a1.283 1.283 0 0 1-.988.517c-.727.129-.727.117-.727.434a.464.464 0 0 0 0 .33h8.063a.732.732 0 0 0 0-.67 4.156 4.156 0 0 0-.595-.118 4.02 4.02 0 0 1-.643-.129 2.12 2.12 0 0 1-.693-.843 2.087 2.087 0 0 1-.177-1.071c-.119-.775-.178-2.196-.178-3.37v-.928h.476a6.519 6.519 0 0 1 1.763.188c.276.168.51.394.688.662.177.268.292.57.336.888l.107.364h.727V5.402h-.667l-.107.505a2.073 2.073 0 0 1-.355.902 2.11 2.11 0 0 1-.73.648 2.016 2.016 0 0 1-.869.06h-1.37v-1.27c0-1.315.072-4.086.12-4.52l.06-.236zm55.74 9.313a4.317 4.317 0 0 0-2.465-1.843 5.978 5.978 0 0 1-2.131-1.175 1.172 1.172 0 0 1-.346-1.045c.001-.37.15-.725.417-.986.18-.187.408-.321.66-.39a1.46 1.46 0 0 1 .77.002c.52.146.99.429 1.362.817.371.39.629.87.745 1.39.19.53.215.53.56.388l.215-.082V4.956l-.155-.07a9.328 9.328 0 0 0-3.657-.494 4.319 4.319 0 0 0-2.858 1.175 3.24 3.24 0 0 0-.803 1.155 3.2 3.2 0 0 0-.233 1.381c.006.722.297 1.412.81 1.926a4.85 4.85 0 0 0 2.024 1.175c1.846.716 2.382 1.174 2.382 2.008.008.351-.105.695-.322.975-.216.28-.523.478-.869.563-.416.09-.846.09-1.262 0a3.67 3.67 0 0 1-1.418-.973 3.6 3.6 0 0 1-.81-1.505l-.154-.375h-.215a.963.963 0 0 0-.297.07h-.12v3.335h.203a12.42 12.42 0 0 0 2.477.54h1.191a4.731 4.731 0 0 0 1.537-.14 3.727 3.727 0 0 0 1.722-.806 3.652 3.652 0 0 0 1.088-1.543c.143-.335.216-.694.215-1.057a2.888 2.888 0 0 0-.262-1.492zM50.507 4.733a5.559 5.559 0 0 0-4.49.105 5.219 5.219 0 0 0-1.708 1.318 5.133 5.133 0 0 0-1.02 1.889 6.192 6.192 0 0 0-.321 2.348 6.34 6.34 0 0 0 .107 1.292 5.192 5.192 0 0 0 1.47 2.763 5.313 5.313 0 0 0 2.806 1.441 8.451 8.451 0 0 0 2.084 0 5.766 5.766 0 0 0 2.025-.763 3.553 3.553 0 0 0 1.263-1.174.585.585 0 0 0-.286-.364 1.543 1.543 0 0 0-.381.2 3.443 3.443 0 0 1-2.001.551 3.22 3.22 0 0 1-1.381-.211 3.181 3.181 0 0 1-1.156-.775 2.808 2.808 0 0 1-.608-.799 5.398 5.398 0 0 1-.583-2.348v-.459h6.598v-.234c.015-.235.015-.47 0-.705a4.647 4.647 0 0 0-.652-2.359 4.734 4.734 0 0 0-1.766-1.716zm-3.323 4.063h-.833v-.693c.273-1.773.952-2.83 1.786-2.83.834 0 1.191 1.045 1.346 2.96v.54h-.715l-1.584.023zm-17.127-4.45a2.53 2.53 0 0 0-1.19.246 3.962 3.962 0 0 0-1.847 1.82l-.155.282V4.345h-.06c-.142 0-4.55.87-4.692.928-.143.059-.095.07-.095.282 0 .211 0 .247.095.258l.465.094a.867.867 0 0 1 .666.34c.298.388.358 1.07.358 3.97a22.365 22.365 0 0 1-.167 3.91.96.96 0 0 1-.288.512.983.983 0 0 1-.534.252l-.405.082h-.155v.33a.464.464 0 0 0 0 .34h6.658v-.34a.845.845 0 0 0 0-.341c-.4-.016-.8-.067-1.19-.153a1.183 1.183 0 0 1-.501-.49 1.16 1.16 0 0 1-.131-.684c-.095-.681-.143-2.678-.12-4.205.025-1.526 0-1.62.132-1.726a2.165 2.165 0 0 1 1.394-.435c.472.01.937.127 1.357.341.146.08.302.14.465.176 0 0 1.19-2.842 1.19-2.971a1.424 1.424 0 0 0-1.25-.47zM22.03 9.277a5.219 5.219 0 0 0-.713-2.384 5.306 5.306 0 0 0-1.74-1.797A6.262 6.262 0 0 0 14 4.944a5.328 5.328 0 0 0-2.608 3.054 7.74 7.74 0 0 0 0 4.51 4.907 4.907 0 0 0 1.274 2.125 4.863 4.863 0 0 0 2.751 1.315c.666.055 1.335.055 2.001 0 .245-.037.488-.088.727-.152a5.31 5.31 0 0 0 2.514-1.54 5.196 5.196 0 0 0 1.285-2.63c.12-.777.147-1.565.084-2.348zm-4.955 5.872c-1.191.352-2.084-.787-2.382-3.183a21.712 21.712 0 0 1 0-3.77c.238-1.926.845-2.9 1.786-2.9a1.205 1.205 0 0 1 1 .434c.799.787 1.192 2.349 1.192 4.698a8.592 8.592 0 0 1-.62 3.899c-.223.36-.57.63-.976.763v.059zM38.513 4.58a4.022 4.022 0 0 0-1.013 0c-.645 0-1.283.136-1.87.4l-.369.152V2.584c.065-.86.065-1.724 0-2.584-.143 0-4.693.857-4.764.893a.36.36 0 0 0 0 .27c0 .246 0 .235.536.352.15.033.295.089.429.164.232.216.387.5.44.81.136.894.18 1.8.131 2.702v10.311l.322.07c.476.106 1.822.33 2.263.376.88.07 1.764.07 2.644 0a5.439 5.439 0 0 0 2.693-1.039 5.33 5.33 0 0 0 1.762-2.26c.219-.577.37-1.176.452-1.786.071-.826.043-1.658-.083-2.478a4.495 4.495 0 0 0-1.179-2.458 4.601 4.601 0 0 0-2.394-1.347zm-3.12 10.37c0-.153-.12-5.296-.096-7.352V5.99l.345-.082c.233-.033.47-.033.703 0 .258-.026.517.032.738.165.445.302.815.7 1.08 1.164.267.464.423.981.457 1.513.087.855.087 1.717 0 2.572a5.606 5.606 0 0 1-1.382 3.37c-.234.22-.528.367-.846.423a2.15 2.15 0 0 1-.726 0c-.226 0-.226-.07-.226-.164h-.048z" fill="#000"></path>
</svg>