<svg width="144" height="28" viewBox="0 0 144 28" fill="none" xmlns="http://www.w3.org/2000/svg">
    <path fill-rule="evenodd" clip-rule="evenodd" d="M96.747 9.166a9.59 9.59 0 0 0-.056-.447v-.075a3.076 3.076 0 0 1-.056-.41c-.012-.15-.034-.301-.057-.452a.221.221 0 0 1-.038-.146 3.353 3.353 0 0 0-.188-.71A9.616 9.616 0 0 0 92.3 1.611a10.83 10.83 0 0 0-5.911-1.61h-8.886v27.496h3.997v-8.119h4.889a11.304 11.304 0 0 0 5.926-1.61 9.506 9.506 0 0 0 4.038-5.346c.048-.11.086-.223.113-.339.022-.081.041-.173.063-.273l.012-.061a.233.233 0 0 1 .038-.15l.113-.9v-.037c.015-.1.027-.201.039-.303l.017-.145c.02-.15.02-.312.02-.485v-.075c0-.177-.005-.342-.02-.489zm-7.6 6.175c-.699.351-1.473.53-2.256.522h-5.35V3.518h5.35a4.918 4.918 0 0 1 2.257.527 6.07 6.07 0 0 1 1.793 1.383 6.37 6.37 0 0 1 1.196 1.963 6.33 6.33 0 0 1 0 4.6 6.43 6.43 0 0 1-1.196 1.966 6.135 6.135 0 0 1-1.793 1.384zM39.317.002l-11.187 27.42h4.08l.857-2.17h12.533l.824 2.17h4.076L39.316.002zm.01 9.164 4.89 12.57h-9.8l4.91-12.57zM17.938 22.553a8.739 8.739 0 0 1-4.396 1.128 8.615 8.615 0 0 1-3.647-.767 9.545 9.545 0 0 1-2.975-2.132 10.367 10.367 0 0 1-2.019-3.14 10.3 10.3 0 0 1 0-7.708 10.367 10.367 0 0 1 2.02-3.14 9.544 9.544 0 0 1 2.989-2.14 8.615 8.615 0 0 1 3.647-.786 8.74 8.74 0 0 1 4.396 1.128 9.665 9.665 0 0 1 3.256 3.05l3.257-2.433a13.755 13.755 0 0 0-4.708-4.042A13.112 13.112 0 0 0 13.53.067c-1.812-.01-3.605.36-5.264 1.086a13.703 13.703 0 0 0-7.201 7.288A13.376 13.376 0 0 0 0 13.769a13.394 13.394 0 0 0 1.065 5.332 13.68 13.68 0 0 0 7.212 7.288 12.927 12.927 0 0 0 5.264 1.087 13.112 13.112 0 0 0 6.227-1.505 13.717 13.717 0 0 0 4.697-4.034l-3.256-2.433a9.662 9.662 0 0 1-3.272 3.05zm42.472 1.015h11.184v3.93H56.407V.025h4.001v23.543zm37.035 3.854L108.627.002l11.183 27.42h-4.087l-.824-2.17h-12.518l-.861 2.17h-4.076zm16.083-5.685-4.889-12.57-4.911 12.57h9.8zm29.923 5.686-8.603-16.87 7.78-10.528h-4.561l-9.13 12.409V.025h-3.964v27.398h3.964v-8.924l3.403-4.56 6.885 13.484h4.226z" fill="#fff"></path>
</svg>