<svg width="159" height="40" viewBox="0 0 159 40" fill="none" xmlns="http://www.w3.org/2000/svg">
    <path d="M54.127 0c0 3.953-.001 7.906-.004 11.86 0 5.683.002 11.367.006 17.051a4.12 4.12 0 0 0 .15 1.137c.178.608.612.902 1.24.918.355.01.71 0 1.091 0v.492H34.87v-2.545c-.074.053-.11.064-.12.087-.621 1.53-1.8 2.386-3.317 2.802-1.757.48-3.525.552-5.248-.128-2.276-.898-3.467-2.667-3.767-5.091-.053-.5-.076-1.002-.07-1.505-.004-4.245-.005-8.49-.003-12.735a4.533 4.533 0 0 0-.033-.702c-.11-.712-.406-.964-1.114-.971-.457-.005-.914 0-1.387 0v-.486h10.252v.408c0 5.625-.008 11.25.01 16.875-.004.606.083 1.21.26 1.788.398 1.232 1.649 1.614 2.699.876.89-.632 1.332-1.571 1.564-2.602.158-.682.242-1.38.25-2.08.022-4.421.012-8.842.008-13.263a2.9 2.9 0 0 0-.06-.66c-.127-.535-.532-.843-1.077-.857-.215-.004-.43 0-.664 0v-.474h9.358v.433c0 6.163.003 12.326.008 18.49 0 .383.064.764.188 1.127.166.477.53.754 1.063.717.365-.026.741-.007 1.092-.094.707-.172 1.173-.771 1.238-1.51a6.07 6.07 0 0 0 .018-.526V2.517c0-.163 0-.328-.014-.491-.062-.952-.592-1.481-1.546-1.514-.345-.012-.686 0-1.053 0l-.033-.508L54.127 0zM88.117 39.999c-.765-.07-1.531-.127-2.294-.21-1.544-.177-3.08-.431-4.487-1.137a6.224 6.224 0 0 1-1.627-1.148c-1.133-1.147-1.151-2.825-.109-4.055.803-.946 1.863-1.456 3.022-1.79l.345-.099c-.217-.087-.375-.154-.535-.216-3.067-1.194-3.4-5.177-1.433-7.148 1.099-1.1 2.428-1.737 3.89-2.143l.374-.103c-.285-.15-.52-.27-.75-.398-.978-.545-1.843-1.23-2.522-2.14-1.392-1.868-1.408-4.136-.026-6.009 1.135-1.538 2.698-2.445 4.464-3.008 2.735-.871 5.474-.832 8.196.07.238.08.345.05.487-.173 1.971-3.067 4.768-4.583 8.355-4.221 3.328.335 5.656 2.274 7.123 5.29.661 1.355.914 2.812.872 4.319-.047 1.696-1.276 3.218-3.045 3.797-2.738.897-5.42-1.134-5.333-4.037.069-2.181 1.946-3.976 4.087-3.885.458.028.915.08 1.367.154.483.07.731-.116.663-.608a3.661 3.661 0 0 0-.336-1.093c-.763-1.553-2.048-2.497-3.621-3.047-2.427-.85-4.759-.568-6.95.767-.886.54-1.44 1.36-1.635 2.406-.132.708.103 1.26.655 1.728.552.469 1.094.943 1.525 1.508 1.586 2.077 1.398 4.636-.448 6.589-1.365 1.444-3.071 2.263-4.966 2.703-2.318.546-4.737.45-7.007-.275-.62-.195-1.602.362-1.862 1.058-.276.727.016 1.596.722 1.854.58.216 1.19.34 1.809.365 1.365.047 2.733.017 4.1-.01 1.921-.039 3.843-.045 5.725.39.782.177 1.545.436 2.276.772 1.662.777 2.69 2.111 3.031 3.954a8.266 8.266 0 0 1-.146 3.75c-.514 1.858-1.728 3.1-3.387 3.937-1.542.778-3.202 1.129-4.897 1.333-.69.083-1.39.14-2.083.21L88.117 40zm1.553-.457c1.144-.082 2.293-.13 3.433-.256 1.008-.111 1.977-.373 2.853-.948 1.325-.872 1.724-3.557-.056-4.632a7.257 7.257 0 0 0-1.632-.723c-1.62-.49-3.302-.534-4.975-.644-1.57-.103-3.134-.273-4.7-.4-.372-.03-.764-.078-1.12 0-1.335.301-2.552.861-3.466 1.943-.422.497-.642 1.072-.582 1.743.082.923.574 1.582 1.29 2.094.755.537 1.608.847 2.49 1.076 2.12.557 4.288.651 6.465.747zm2.957-22.633c-.07-1.388-.07-2.444-.184-3.486a9.806 9.806 0 0 0-.503-2.166c-.24-.683-.828-.965-1.54-.96-.695.006-1.24.3-1.508.959a6.515 6.515 0 0 0-.424 1.544c-.294 2.15-.261 4.313-.116 6.472.047.69.216 1.38.394 2.052.126.484.482.816.96.977 1.2.401 2.193-.136 2.535-1.37.04-.122.067-.248.083-.375.113-1.327.22-2.652.303-3.647zM158.068 31.442c-1.707.807-3.458.847-5.211.238-1.835-.637-2.897-2.056-3.53-3.954-.114.244-.186.41-.267.569-.262.518-.505 1.048-.796 1.549-.711 1.222-1.785 1.876-3.165 2.035-1.709.194-3.374.058-4.943-.715-2.915-1.437-3.511-4.415-2.704-6.832.45-1.345 1.43-2.198 2.661-2.786 1.172-.561 2.445-.781 3.7-1.06.785-.17 1.561-.381 2.325-.632 1.695-.567 2.709-1.772 3.073-3.547.263-1.298.28-2.634.049-3.938-.284-1.644-1.116-2.342-2.759-2.316a5.76 5.76 0 0 0-3.073.898 2.15 2.15 0 0 0-.587.573c-.145.21-.028.393.207.358 2.197-.33 4.44 2.014 3.456 4.906-.643 1.887-2.512 3.025-4.396 2.705-1.952-.331-3.351-1.994-3.387-4.013-.028-1.556.633-2.774 1.777-3.744 1.178-.998 2.574-1.524 4.058-1.803 2.645-.496 5.28-.491 7.873.318 1.466.456 2.706 1.273 3.597 2.57.683.993.945 2.112.943 3.312-.005 4.269-.005 8.537 0 12.805-.007.455.029.91.109 1.357.111.545.415.962.99 1.147zm-8.852-13.332c-.138.116-.21.18-.285.246-.573.503-1.131 1.024-1.725 1.504-.531.433-1 .923-1.231 1.57-.261.73-.552 1.486-.609 2.245-.12 1.698-.112 3.406-.128 5.11.003.456.055.91.154 1.355.16.772.811 1.048 1.449.59.354-.258.661-.576.91-.94a8.32 8.32 0 0 0 1.5-4.693c.025-2.186.006-4.372.004-6.559.005-.114-.018-.233-.039-.425v-.003z" fill="#fff"></path>
    <path d="M122.793 31.44c-1.709.812-3.463.849-5.216.243-1.832-.631-2.897-2.05-3.535-3.955-.118.251-.19.416-.271.575-.276.537-.529 1.088-.836 1.606-.702 1.182-1.757 1.807-3.096 1.965-1.66.195-3.281.07-4.822-.641-2.986-1.384-3.663-4.369-2.863-6.849.401-1.246 1.264-2.092 2.383-2.69 1.142-.611 2.388-.884 3.64-1.13 1.072-.211 2.13-.47 3.114-.976 1.935-.994 2.912-2.836 2.718-5.039-.146-1.66-.551-3.24-1.292-4.728-.024-.05-.041-.103-.09-.228.642.057 1.232.09 1.817.162 1.504.186 2.956.562 4.283 1.334 1.487.86 2.541 2.069 2.858 3.83.07.415.103.835.1 1.256.006 4.245 0 8.49.008 12.736a7.659 7.659 0 0 0 .145 1.495c.101.509.426.868.955 1.034zm-8.846-13.24-.177-.13c-.074.133-.123.293-.227.394-.39.379-.759.802-1.206 1.093-1.266.823-1.877 2.035-2.163 3.475-.351 1.77-.282 3.56-.23 5.346.015.595.073 1.188.172 1.775.13.743.765 1.02 1.398.616.301-.194.565-.441.781-.729 1.048-1.407 1.631-3.009 1.665-4.771.044-2.256.012-4.512.011-6.769.003-.1-.015-.2-.024-.3zM16.968 12.525c.143-.295.059-.54-.12-.702-.441-.4-.879-.827-1.383-1.128-.85-.506-1.81-.669-2.788-.645-1.206.03-2.046.669-2.631 1.702-.595 1.053-.882 2.203-1.077 3.38-.5 3.018-.497 6.054-.373 9.095.058 1.415.181 2.828.59 4.187.185.614.44 1.202.76 1.755.53.912 1.38 1.348 2.405 1.41 2.829.173 5.296-1.368 6.606-4.108.612-1.281.896-2.642.952-4.06 0-.092.013-.183.022-.312l.456.04c-.085.75-.126 1.482-.256 2.197-.383 2.105-1.28 3.918-2.983 5.244-1.351 1.053-2.914 1.522-4.589 1.594-3.31.14-6.335-.679-8.891-2.91C1.538 27.408.39 25.01.073 22.185-.56 16.558 3 11.966 7.983 10.325c2.22-.73 4.494-1.002 6.789-.42 2.257.575 4.019 1.845 4.91 4.108.638 1.62.58 3.25-.398 4.728-1.02 1.544-2.552 2.061-4.3 1.868-1.812-.2-3.197-1.107-3.857-2.896-.971-2.628.954-5.49 3.732-5.557.595-.014 1.194.172 1.79.27.108.027.215.06.319.1zM69.1 24.361h.456c-.04.663-.03 1.319-.131 1.957-.135.837-.281 1.684-.56 2.483-.683 1.957-2.098 3.037-4.123 3.278-1.42.168-2.822.088-4.178-.411-1.926-.71-2.869-2.065-2.881-4.14-.01-1.591 0-3.181 0-4.772V10.725h-2.105v-.609c.313 0 .62-.005.924 0 2.588.05 4.77-.945 6.621-2.723 1.38-1.322 2.226-2.93 2.313-4.896a.507.507 0 0 1 .031-.107c.045-.006.09-.01.134-.011.091 0 .182.013.315.022v7.703h3.563v.612h-3.55v.407c0 5.741.002 11.483.005 17.225-.005.408.034.816.118 1.215.151.672.774.933 1.327.536a2.84 2.84 0 0 0 .763-.879c.507-.881.699-1.872.81-2.877.068-.646.097-1.3.148-1.982zM137.695 31.47H124.1v-.503h1.044c1.277-.014 1.947-.701 1.948-2.006v-16.42c0-.117 0-.235-.009-.351-.059-.94-.597-1.48-1.518-1.514-.352-.013-.706 0-1.078 0V10.2h10.719v.42c0 6.104.002 12.21.006 18.316-.003.384.049.766.154 1.135.178.592.607.88 1.217.898.365.01.731 0 1.115 0l-.003.502zM130.901.753c.792 0 1.566.24 2.224.69a4.058 4.058 0 0 1 1.473 1.829c.303.745.381 1.564.226 2.354a4.099 4.099 0 0 1-1.097 2.085 3.987 3.987 0 0 1-2.051 1.114 3.944 3.944 0 0 1-2.314-.233 4.025 4.025 0 0 1-1.797-1.5 4.124 4.124 0 0 1-.674-2.264 4.112 4.112 0 0 1 1.173-2.885 4 4 0 0 1 1.302-.883 3.94 3.94 0 0 1 1.535-.307z" fill="#fff"></path>
</svg>