<svg width="78" height="19" viewBox="0 0 78 19" fill="none" xmlns="http://www.w3.org/2000/svg">
    <path d="M29.06 18.076c3.082 0 5.79-1.277 6.473-1.78l.515-4.216-.284-.077c-1.392 3.275-3.197 5.338-6.64 5.338-4.512 0-6.574-3.559-6.574-8.33 0-4.744 2.114-8.276 6.833-8.276 2.797 0 4.409 1.263 6.304 4.37l.258-.077-.503-3.868C34.23.67 32 0 29.602 0 23.98 0 20.28 3.958 20.28 9.012c0 5.08 3.327 9.064 8.78 9.064zM43.165 4.06v7.994c0 4.267 2.965 5.995 6.472 5.982 4.512 0 5.982-2.914 5.982-6.305V4.474c0-1.87.284-2.656 1.522-4.1l-.078-.052H53.17v.052c1.405 1.444 1.688 2.23 1.688 4.1v7.284c0 2.9-1.16 5.531-4.886 5.531-2.72 0-4.834-1.392-4.834-5.312V4.061c0-1.702.257-2.565.966-3.674V.335h-3.932v.052c.825 1.276.993 1.972.993 3.674zm24.599 13.654h3.868l.013-.052c-.787-1.212-.954-1.87-.954-3.507V.993l3.055.09c.75.033 1.855 1.72 2.809 3.175.179.274.352.539.517.783l.284-.09-.954-4.603H62.981l-.928 4.603.257.09c.157-.23.323-.48.494-.737.967-1.457 2.11-3.177 2.833-3.221l3.081-.09v13.163c0 1.612-.168 2.295-.954 3.507v.052zM15.497 12.75H.232v-.232h15.265v.232zM1.29 10.278h1.29c-.181-.4-.233-.619-.233-1.135V6.384l.452.026c.223.02.518.432.779.795.07.098.138.193.2.275l.104-.039-.22-1.263H.22L0 7.441l.103.04.06-.087c.272-.391.669-.96.92-.984l.451-.026v2.76c0 .528-.064.734-.245 1.121v.013zm4.577 0h1.29c-.181-.4-.246-.619-.246-1.135V8.28h1.793v.851c0 .529-.052.735-.245 1.122v.013h1.289v-.013c-.18-.387-.245-.593-.245-1.109V7.3c0-.516.064-.722.245-1.11v-.012h-1.29v.013c.194.387.246.606.246 1.122v.747H6.91V7.3c0-.516.065-.722.245-1.11v-.012H5.866v.013c.18.387.232.593.232 1.122v1.83c0 .529-.051.735-.232 1.122v.013zm6.098 0h3.004s.266-1.24.271-1.25l-.103-.04c-.297.426-.748 1.045-1.16 1.058l-.954.039V8.344h.412c.26 0 .507.331.663.54l.02.027h.116v-1.38h-.116l-.02.028c-.156.209-.404.54-.663.54h-.425V6.397l.89.039c.185.01.438.3.671.568.09.103.177.204.256.283l.104-.039-.22-1.07h-2.746v.013c.155.387.232.606.232 1.07v1.934c0 .464-.077.683-.232 1.07v.013z" fill="#000"></path>
</svg>