<svg width="155" height="30" viewBox="0 0 155 30" fill="none" xmlns="http://www.w3.org/2000/svg">
    <path fill-rule="evenodd" clip-rule="evenodd" d="m107.783 5.277-1.06 2.822-1.063-2.822h-.98v4.056h.755V6.778l.971 2.554h.585l1.002-2.587v2.588h.713V5.277h-.923zm-8.472.757h1.503v3.3h1.02v-3.3h1.503v-.756h-4.026v.756zM10.077 23.923c2.243 0 4.259-1.64 4.259-4.838 0-3.24-2.016-4.801-4.258-4.801-2.243 0-4.26 1.56-4.26 4.8 0 3.2 2.016 4.839 4.26 4.839zm9.886 1.405c0 1.756.114 3.044.153 3.473h-5.552a13.66 13.66 0 0 1-.153-1.874c-.874 1.328-2.775 2.304-5.057 2.304C4.03 29.23 0 25.015 0 19.045 0 13.27 3.802 8.938 9.163 8.938c3.235 0 4.64 1.25 5.097 1.991V.548h5.703v24.78zm17.378-6.244c0-3.278-2.053-4.8-4.26-4.8-2.167 0-4.258 1.522-4.258 4.8 0 3.239 2.091 4.839 4.259 4.839 2.206 0 4.26-1.561 4.26-4.838zm5.779 0c0 6.01-4.372 10.302-10.038 10.302-5.628 0-10.039-4.293-10.039-10.302 0-6.008 4.411-10.263 10.039-10.263 5.666 0 10.038 4.253 10.038 10.263zM49.43 22.399c.076 1.327.988 2.615 2.965 2.615 1.483 0 2.207-.819 2.207-1.678 0-.703-.458-1.288-1.864-1.6l-2.168-.507c-4.03-.898-5.627-3.238-5.627-5.97 0-3.552 3.042-6.439 7.263-6.439 5.475 0 7.377 3.512 7.566 5.776l-4.79.897c-.152-1.288-.95-2.379-2.698-2.379-1.103 0-2.054.663-2.054 1.678 0 .82.646 1.288 1.483 1.445l2.51.507c3.916.819 5.816 3.24 5.816 6.087 0 3.317-2.471 6.556-7.53 6.556-5.93 0-7.83-3.942-7.984-6.088l4.906-.897-.002-.003zM63.047 28.798h5.78V9.404h-5.78v19.394zM65.899 0c.914 0 1.791.366 2.438 1.017a3.485 3.485 0 0 1 1.01 2.456c0 .92-.363 1.804-1.01 2.455a3.436 3.436 0 0 1-2.438 1.018A3.406 3.406 0 0 1 63.517 5.9a3.454 3.454 0 0 1-.964-2.429 3.455 3.455 0 0 1 .965-2.428A3.407 3.407 0 0 1 65.898 0zm10.57 22.399c.076 1.327.989 2.614 2.966 2.614 1.483 0 2.206-.82 2.206-1.679 0-.702-.458-1.287-1.864-1.6l-2.168-.506c-4.03-.897-5.627-3.239-5.627-5.97 0-3.552 3.042-6.44 7.264-6.44 5.475 0 7.377 3.511 7.566 5.777l-4.791.896c-.152-1.288-.95-2.379-2.699-2.379-1.103 0-2.053.662-2.053 1.676 0 .82.644 1.288 1.483 1.445l2.51.506c3.915.82 5.815 3.24 5.815 6.087 0 3.318-2.47 6.557-7.529 6.557-5.931 0-7.832-3.941-7.985-6.087l4.906-.897zM97.002 9.404h3.688v5.19h-3.688v7.258c0 1.6.837 2.03 2.091 2.03a6.951 6.951 0 0 0 1.521-.195v4.917c-.229.116-1.179.546-3.004.546-3.918 0-6.313-2.382-6.313-6.245v-8.311h-3.346v-5.19h.95c1.979 0 2.929-1.365 2.929-3.162V3.748H97v5.657l.002-.001zM149.88 6.06c.426-.008.846.112 1.204.345a2.164 2.164 0 0 1 .948 2.215c-.079.422-.28.811-.579 1.118a2.14 2.14 0 0 1-3.315-.31 2.172 2.172 0 0 1-.365-1.205 2.152 2.152 0 0 1 .61-1.52 2.122 2.122 0 0 1 1.497-.643zm0 6.642a4.423 4.423 0 0 0 2.494-.713 4.471 4.471 0 0 0 1.676-1.993 4.507 4.507 0 0 0-.909-4.91 4.44 4.44 0 0 0-2.277-1.25 4.416 4.416 0 0 0-2.581.24 4.459 4.459 0 0 0-2.011 1.65 4.506 4.506 0 0 0-.755 2.497 4.457 4.457 0 0 0 1.262 3.148 4.396 4.396 0 0 0 3.101 1.33zm-3.211 13.79-9.447-15.666 2.189-3.706 11.681 19.372h-4.423zm-18.699 0 7.937-13.443 8.107 13.442h-16.044zm2.463-22.517 4.14 6.864-9.242 15.651h-8.48l13.581-22.513.001-.002zm9.924.317a1.117 1.117 0 0 0-.96-.549h-.005a1.119 1.119 0 0 0-.96.56l-2.545 4.312-4.494-7.45a1.12 1.12 0 0 0-.959-.548 1.11 1.11 0 0 0-.96.548L113.867 27.04a1.177 1.177 0 0 0-.025 1.174 1.125 1.125 0 0 0 .986.595h38.291a1.12 1.12 0 0 0 .985-.595 1.186 1.186 0 0 0-.027-1.173L140.361 4.295l-.003-.002z" fill="#fff"></path>
</svg>