<svg width="173" height="23" viewBox="0 0 173 23" fill="none" xmlns="http://www.w3.org/2000/svg">
    <path fill-rule="evenodd" clip-rule="evenodd" d="M162.782 19.633a4.828 4.828 0 0 1-2.019-1.776l-2.398 2.096a6.44 6.44 0 0 0 2.945 2.285c1.248.498 2.577.75 3.917.742a9.006 9.006 0 0 0 2.914-.464 7.018 7.018 0 0 0 2.362-1.33 6.307 6.307 0 0 0 1.593-2.13 6.62 6.62 0 0 0 .592-2.843c0-1.318-.263-2.352-.789-3.103a5.952 5.952 0 0 0-1.958-1.792c-.804-.453-1.661-.8-2.55-1.036a23.075 23.075 0 0 1-2.551-.833 6.137 6.137 0 0 1-1.958-1.204c-.526-.494-.789-1.205-.789-2.131.007-.37.074-.735.197-1.082.145-.413.378-.787.683-1.096a3.636 3.636 0 0 1 1.294-.834c.535-.216 1.208-.324 2.018-.324a4.835 4.835 0 0 1 2.277.526c.63.315 1.166.794 1.553 1.39l2.367-2.192c-.81-1.01-1.751-1.679-2.823-2.008a11.43 11.43 0 0 0-3.37-.494c-1.296 0-2.404.2-3.325.601a7.132 7.132 0 0 0-2.262 1.5 5.877 5.877 0 0 0-1.699 4.014c-.001 1.42.262 2.547.789 3.382a6.274 6.274 0 0 0 1.958 1.992c.795.502 1.653.891 2.551 1.158.923.279 1.773.567 2.549.866a6.78 6.78 0 0 1 1.959 1.112c.526.442.789 1.085.789 1.93a3.076 3.076 0 0 1-.394 1.58 3.77 3.77 0 0 1-1.018 1.143c-.418.31-.885.545-1.381.694-.482.152-.984.23-1.488.232a5.942 5.942 0 0 1-2.535-.571zm-64.291 3.351a11.44 11.44 0 0 1-4.527-.88 10.517 10.517 0 0 1-3.54-2.425 11.227 11.227 0 0 1-2.307-3.644 12.758 12.758 0 0 1 0-9.08 11.228 11.228 0 0 1 2.308-3.65A10.516 10.516 0 0 1 93.96.878a12.08 12.08 0 0 1 9.048 0 10.537 10.537 0 0 1 3.543 2.425 11.252 11.252 0 0 1 2.306 3.644 12.762 12.762 0 0 1 0 9.08 11.253 11.253 0 0 1-2.306 3.643 10.545 10.545 0 0 1-3.538 2.425c-1.434.6-2.972.902-4.523.888zm0-2.78a7.703 7.703 0 0 0 3.214-.637 7.822 7.822 0 0 0 2.675-1.92 8.27 8.27 0 0 0 1.64-2.763 10.203 10.203 0 0 0 0-6.764 8.29 8.29 0 0 0-1.64-2.763 8.064 8.064 0 0 0-2.679-1.925 7.937 7.937 0 0 0-6.422 0 8.058 8.058 0 0 0-2.678 1.925 8.259 8.259 0 0 0-1.64 2.763 10.18 10.18 0 0 0 0 6.764 8.246 8.246 0 0 0 1.64 2.763 7.816 7.816 0 0 0 2.675 1.924 7.698 7.698 0 0 0 3.215.64v-.007zM53.654 5.286a6.049 6.049 0 0 0-2.307-1.85 6.773 6.773 0 0 0-2.884-.649 7.607 7.607 0 0 0-3.295.696 7.577 7.577 0 0 0-2.52 1.899 8.719 8.719 0 0 0-1.628 2.823 10.307 10.307 0 0 0-.577 3.475 9.724 9.724 0 0 0 .547 3.274 8.208 8.208 0 0 0 1.578 2.718 7.437 7.437 0 0 0 2.52 1.853 8.03 8.03 0 0 0 3.37.679c1.235 0 2.317-.258 3.248-.773a6.994 6.994 0 0 0 2.378-2.16l2.457 1.883a9.94 9.94 0 0 1-.85.974 8.493 8.493 0 0 1-1.608 1.265c-.76.466-1.57.839-2.414 1.112a10.173 10.173 0 0 1-3.263.48c-1.7 0-3.234-.33-4.6-.99a11.323 11.323 0 0 1-4.691-4.209 11.6 11.6 0 0 1-1.76-6.106 13.002 13.002 0 0 1 .82-4.68 11.084 11.084 0 0 1 2.292-3.706A10.239 10.239 0 0 1 43.995.87a11.678 11.678 0 0 1 4.554-.865 11 11 0 0 1 4.175.833 7.815 7.815 0 0 1 3.354 2.564l-2.424 1.884zM3.83.56H.005L0 22.428h2.914V4.453h.06l11.963 17.975h3.704V.56h-2.915v17.974h-.061L3.83.561zm26.288 0h-2.915v21.867h2.915V.56zm35.892 0h-2.914v21.867h2.914V12.42h11.142v10.007h2.915V.56h-2.915v9.08H66.01V.56zm53.822 0h-2.914v21.867h12.781v-2.78h-9.867V.56zm22.625 0h2.641l9.199 21.867h-3.4l-2.155-5.406h-10.231l-2.127 5.406h-3.399L142.457.56zm5.222 13.868-4.01-10.038h-.061L139.54 14.43h8.139z" fill="#fff"></path>
</svg>